<?xml version="1.0" standalone="no"?>
<!DOCTYPE svg PUBLIC "-//W3C//DTD SVG 20010904//EN"
 "http://www.w3.org/TR/2001/REC-SVG-20010904/DTD/svg10.dtd">
<svg version="1.0" xmlns="http://www.w3.org/2000/svg"
 width="619.000000pt" height="619.000000pt" viewBox="0 0 619.000000 619.000000"
 preserveAspectRatio="xMidYMid meet">

<g transform="translate(0.000000,619.000000) scale(0.100000,-0.100000)"
fill="#000000" stroke="none">
<path d="M6150 6175 c0 -9 -9 -15 -25 -15 -28 0 -44 -25 -27 -42 8 -8 15 -8
24 -1 7 6 25 13 41 17 20 5 27 12 27 31 0 18 -5 25 -20 25 -11 0 -20 -7 -20
-15z"/>
<path d="M6036 6106 c3 -9 11 -16 16 -16 13 0 5 23 -10 28 -7 2 -10 -2 -6 -12z"/>
<path d="M2798 6051 c-39 -5 -57 -15 -103 -59 -30 -29 -55 -48 -55 -42 0 17
-20 11 -46 -15 -14 -14 -43 -29 -65 -34 -22 -5 -43 -11 -46 -14 -2 -3 -29 6
-59 20 -76 35 -153 22 -256 -43 -23 -15 -56 -28 -72 -29 -22 -2 -32 -8 -34
-23 -3 -22 -39 -32 -132 -36 -105 -5 -101 -3 -98 -33 3 -26 1 -28 -38 -29 -22
0 -46 -4 -52 -8 -19 -12 -14 -36 8 -36 36 0 21 -28 -24 -43 -47 -16 -58 -14
-49 8 4 11 -3 13 -29 9 -19 -3 -48 1 -68 9 -33 14 -38 14 -73 -6 -46 -26 -121
-115 -137 -162 -11 -33 -34 -47 -42 -25 -2 5 -24 -4 -51 -20 -35 -22 -47 -36
-47 -54 0 -13 -7 -29 -15 -36 -8 -7 -15 -17 -15 -23 0 -6 -7 -18 -15 -27 -13
-14 -14 -30 -7 -91 5 -41 8 -77 6 -81 -2 -3 -20 -2 -40 3 -39 11 -64 -1 -64
-31 0 -9 -9 -25 -20 -35 -17 -15 -20 -31 -20 -102 0 -70 4 -91 23 -126 19 -33
22 -47 14 -65 -11 -25 -15 -26 -53 -12 -40 16 -41 5 -1 -43 20 -25 38 -60 42
-83 4 -21 11 -46 15 -54 5 -8 4 -23 -2 -34 -7 -13 -7 -26 1 -42 7 -17 7 -25
-2 -31 -7 -5 1 -10 23 -13 46 -7 80 -63 64 -107 -5 -16 -17 -28 -26 -28 -37 0
-42 -20 -41 -190 0 -91 -4 -165 -9 -165 -16 0 -48 -65 -48 -98 0 -18 9 -50 20
-72 24 -48 85 -110 106 -110 15 0 15 2 0 25 -21 32 -13 32 34 -2 23 -17 48
-48 62 -77 22 -48 81 -116 100 -116 5 0 29 -18 52 -41 31 -28 45 -51 50 -77 9
-55 43 -92 101 -106 51 -13 73 -36 35 -36 -17 0 -21 -4 -16 -17 8 -20 -10 -33
-49 -33 -32 -1 -30 -3 22 -37 16 -10 16 -13 3 -22 -13 -10 -13 -11 0 -11 9 0
25 6 36 14 39 28 65 24 84 -12 10 -19 25 -41 34 -51 9 -10 16 -23 16 -29 0 -6
21 -33 48 -59 52 -55 117 -80 177 -70 29 5 40 1 65 -22 33 -29 128 -55 168
-45 19 5 22 14 24 58 1 28 1 62 0 75 -2 37 -47 122 -103 195 -42 54 -59 68
-93 76 -110 28 -214 87 -286 163 -44 46 -115 197 -93 197 4 0 14 -14 22 -30
13 -31 76 -127 95 -145 30 -29 111 -85 122 -85 8 0 14 -5 14 -11 0 -6 16 -9
37 -7 34 3 38 6 44 38 7 31 4 39 -24 68 -26 27 -29 34 -17 42 16 10 58 3 79
-14 13 -10 11 -79 -4 -117 -4 -11 5 -21 32 -35 21 -10 41 -23 44 -27 3 -5 9
-8 13 -8 3 1 17 -6 31 -15 29 -19 57 -14 108 20 20 14 55 30 77 37 22 7 40 18
40 26 0 18 19 17 26 -2 8 -20 34 -19 50 3 13 16 15 16 28 -1 11 -14 22 -17 51
-11 38 7 40 14 19 68 -3 9 -1 16 6 16 6 0 3 11 -9 26 -12 15 -21 33 -21 40 0
8 -6 14 -14 14 -7 0 -30 27 -50 60 -29 50 -33 62 -20 67 13 5 13 8 1 27 -15
21 -12 81 4 102 5 6 0 24 -12 43 -28 46 -41 119 -23 129 8 4 40 33 72 63 31
31 65 59 75 62 9 4 20 15 23 24 15 46 28 63 51 63 14 0 34 5 46 12 12 6 42 13
67 15 25 2 55 8 66 14 26 14 66 -4 58 -25 -3 -8 3 -17 14 -20 11 -4 23 -13 26
-21 3 -9 19 -15 38 -15 44 0 82 -50 66 -86 -6 -13 -16 -24 -23 -24 -6 0 -16
-5 -23 -12 -7 -7 -21 -13 -32 -13 -11 0 -20 -4 -19 -9 0 -4 -31 -22 -68 -38
-98 -43 -98 -43 -101 -67 -2 -11 -8 -21 -13 -21 -14 0 -11 -26 6 -40 8 -6 13
-15 12 -18 -1 -4 11 -24 28 -46 16 -21 29 -50 30 -64 0 -35 25 -42 25 -7 0 17
5 25 13 22 6 -2 11 -14 9 -27 -1 -16 2 -21 13 -16 14 5 55 -25 55 -40 0 -11
45 -43 61 -44 9 0 26 -9 39 -20 13 -11 31 -20 41 -20 11 0 31 -13 45 -29 14
-16 31 -28 38 -27 6 2 8 1 4 -1 -13 -7 -9 -30 6 -42 8 -7 17 -24 21 -39 4 -15
14 -35 22 -44 12 -14 13 -23 5 -45 -14 -38 -13 -62 5 -106 14 -31 14 -41 3
-61 -11 -21 -10 -28 9 -54 20 -28 29 -64 30 -121 1 -16 5 -21 16 -17 9 3 19
-3 25 -14 9 -16 8 -20 -6 -20 -13 0 -15 -6 -10 -27 4 -16 13 -32 20 -38 16
-13 9 -35 -18 -57 l-21 -18 23 0 c12 0 22 -4 22 -10 0 -5 -4 -10 -9 -10 -15 0
-22 -32 -11 -45 20 -24 -9 -28 -37 -5 l-26 20 -24 -22 c-22 -21 -25 -21 -34
-6 -8 14 -15 15 -35 8 -14 -6 -36 -7 -48 -4 -14 3 -27 -1 -35 -10 -12 -14 -10
-16 10 -16 21 -1 22 -2 8 -13 -14 -11 -10 -16 33 -37 28 -14 54 -32 58 -40 15
-29 3 -120 -19 -144 -12 -12 -21 -30 -21 -39 0 -12 -8 -17 -27 -17 -24 -1 -25
-2 -11 -11 9 -5 15 -16 12 -23 -3 -7 3 -17 13 -21 16 -7 15 -9 -7 -14 -19 -6
-31 -1 -53 21 -16 15 -37 28 -48 28 -25 0 -36 27 -20 51 6 11 7 19 3 19 -16 0
-55 81 -44 92 7 7 7 18 -1 35 -8 19 -8 26 3 33 10 6 1 16 -35 39 -27 17 -54
31 -60 31 -6 0 -29 9 -50 21 -59 30 -135 49 -135 34 0 -7 10 -16 23 -19 17 -6
19 -9 7 -14 -29 -14 -6 -145 29 -166 6 -4 8 -18 5 -32 -4 -17 -1 -26 10 -30 9
-3 16 -15 16 -26 0 -14 5 -18 15 -15 8 4 22 -5 35 -21 11 -15 24 -32 28 -37
42 -51 60 -119 38 -147 -10 -13 -23 -17 -52 -13 -21 2 -84 7 -139 9 -90 5
-108 10 -173 42 -138 70 -193 167 -216 379 -11 104 -29 209 -37 225 -10 19
-44 -59 -65 -147 -19 -82 -11 -166 32 -371 28 -128 51 -202 108 -346 40 -100
80 -198 89 -217 8 -19 20 -50 26 -69 34 -112 50 -168 57 -195 9 -37 8 -34 22
-68 7 -15 15 -39 18 -52 5 -22 3 -25 -20 -25 -16 0 -26 6 -26 14 0 8 -9 21
-21 29 -12 9 -16 17 -10 21 6 4 7 14 2 24 -13 26 -41 115 -41 130 0 8 -6 28
-14 45 -7 18 -26 64 -41 102 -16 39 -38 84 -49 100 -30 42 -66 111 -66 124 0
25 -130 279 -146 285 -11 4 -14 13 -11 27 12 45 -21 8 -78 -88 -33 -56 -72
-119 -87 -140 -14 -22 -32 -59 -39 -83 -10 -31 -33 -63 -84 -114 -76 -76 -135
-155 -135 -180 0 -9 -6 -15 -12 -13 -7 1 -12 -2 -12 -8 12 -96 13 -163 2 -173
-14 -11 -85 17 -99 39 -7 12 -55 -60 -106 -158 -26 -53 -29 -64 -17 -71 13 -7
12 -18 -8 -79 -15 -47 -29 -73 -40 -76 -10 -3 -18 -15 -18 -26 0 -12 -6 -21
-15 -21 -11 0 -15 -11 -15 -36 0 -43 -15 -74 -37 -74 -11 0 -14 -6 -10 -22 4
-13 0 -26 -10 -33 -17 -13 -47 -89 -31 -79 11 7 28 -13 28 -33 0 -7 -9 -22
-21 -34 -20 -20 -24 -46 -17 -114 2 -24 -1 -30 -17 -31 -11 -1 -25 -2 -31 -3
-6 -1 -17 -15 -24 -32 -12 -27 -11 -36 8 -75 20 -41 23 -43 48 -34 20 8 32 7
50 -5 13 -8 24 -20 24 -25 0 -5 27 -17 60 -26 33 -9 63 -20 65 -24 3 -4 -25
-8 -61 -8 -36 0 -70 -4 -75 -9 -6 -6 -6 -26 0 -54 16 -69 16 -71 -31 -67 -39
3 -43 6 -46 31 -2 16 1 34 7 41 8 10 8 22 1 41 -17 44 -35 24 -38 -43 -3 -61
-2 -62 31 -82 18 -11 40 -31 47 -45 7 -14 49 -49 92 -77 78 -53 97 -78 56 -78
-12 0 -18 -3 -14 -7 3 -4 -4 -13 -16 -20 -19 -10 442 -12 2415 -13 l2437 0 0
556 0 557 -55 109 c-30 60 -75 143 -99 186 -24 42 -96 180 -161 307 -65 126
-135 258 -156 293 -22 35 -39 66 -39 69 0 2 -17 30 -39 61 -21 31 -46 73 -56
92 -10 19 -24 39 -31 43 -8 4 -14 12 -14 18 0 5 -9 28 -20 52 -36 78 -51 130
-40 141 15 15 12 29 -4 23 -10 -4 -13 -1 -10 7 3 8 1 17 -5 21 -6 3 -11 18
-11 32 0 18 -4 24 -14 20 -10 -4 -22 8 -36 35 -11 22 -20 41 -18 42 38 16 51
43 21 40 -7 -1 -10 2 -7 7 3 5 11 9 19 9 7 0 20 6 27 13 20 19 139 77 157 77
10 0 22 -5 28 -11 18 -18 50 -1 62 32 6 17 15 28 20 25 16 -10 43 6 36 22 -9
25 22 62 53 62 22 -1 35 -12 65 -58 21 -31 73 -108 116 -171 44 -62 89 -133
102 -157 29 -58 44 -70 64 -54 18 15 19 34 3 60 -10 16 -9 23 9 42 29 32 19
55 -14 33 -24 -16 -26 -16 -64 26 -21 23 -49 63 -61 88 -12 25 -38 71 -58 101
-33 50 -70 120 -70 133 0 3 46 36 103 74 111 74 118 80 110 100 -8 22 -35 15
-105 -26 -61 -36 -114 -65 -278 -154 -54 -29 -110 -65 -120 -77 -3 -4 -34 -17
-70 -30 -36 -13 -86 -34 -112 -47 -26 -12 -55 -23 -64 -23 -9 0 -22 -7 -29
-17 -8 -10 -19 -14 -30 -10 -13 6 -15 11 -6 20 15 19 -14 57 -45 57 -13 0 -24
5 -24 10 0 6 11 8 25 4 26 -6 36 10 11 19 -8 3 -17 19 -21 36 -7 34 -35 54
-59 45 -9 -3 -16 -1 -16 5 0 6 5 11 12 11 6 0 9 3 5 6 -3 3 -27 -1 -53 -10
-41 -14 -50 -14 -78 -1 -158 73 -287 95 -517 89 -479 -12 -518 -12 -528 0 -6
7 -18 68 -27 137 -16 118 -16 129 -1 177 9 28 17 69 17 91 0 36 4 42 40 62 46
26 55 47 55 134 0 50 -5 69 -31 110 -17 28 -34 71 -38 96 -8 55 -64 174 -112
241 -28 40 -34 57 -34 98 0 29 -7 61 -16 75 -15 22 -14 24 14 45 28 21 30 26
36 120 8 112 2 133 -57 198 -21 24 -37 50 -35 59 3 16 64 39 135 50 17 3 40
14 50 25 17 19 17 19 -10 13 -22 -6 -27 -4 -27 10 0 13 6 16 25 13 20 -4 25
-1 25 16 0 12 -7 31 -15 42 -20 27 -18 48 6 70 22 20 49 66 49 84 0 5 -15 10
-34 10 -41 0 -52 12 -59 70 -3 26 -13 50 -23 57 -10 7 -18 24 -17 38 2 58 3
61 12 47 4 -7 6 -24 4 -36 -3 -13 0 -27 6 -30 16 -10 26 44 12 66 -6 10 -14
40 -18 66 -8 57 -45 112 -72 105 -15 -4 -21 2 -26 26 -3 17 -4 39 0 50 4 15
-1 24 -22 35 -15 8 -39 24 -52 35 -14 12 -42 24 -64 28 -33 5 -42 12 -53 39
-17 40 -20 41 -50 13 -20 -19 -26 -20 -61 -9 -21 6 -65 25 -98 41 -34 16 -68
29 -77 29 -9 0 -18 7 -22 15 -3 8 -13 15 -21 15 -12 0 -15 6 -10 20 4 14 2 20
-9 20 -8 0 -22 9 -30 21 -18 26 -40 15 -32 -16 6 -25 -22 -45 -34 -25 -4 6
-16 13 -26 14 -10 2 -26 15 -34 29 -14 25 -13 28 6 48 14 13 40 23 68 26 25 3
46 9 46 13 0 4 12 12 27 19 26 12 26 14 10 25 -9 7 -28 11 -41 9 -14 -3 -37 2
-53 10 -15 8 -44 21 -63 28 -19 7 -38 18 -42 23 -5 7 -11 7 -20 -2 -15 -15
-47 -15 -74 1 -67 38 -83 45 -119 49 -22 3 -61 3 -87 -1z m316 -97 c18 -7 22
-34 5 -34 -19 0 -50 21 -44 31 7 11 17 11 39 3z m522 -335 c8 -14 -18 -31 -30
-19 -9 9 0 30 14 30 5 0 12 -5 16 -11z m-2487 -570 c21 -17 23 -23 13 -40 -7
-10 -12 -28 -12 -39 0 -32 -26 -23 -49 16 -24 40 -26 55 -9 72 17 17 29 15 57
-9z m2775 -240 c11 -10 12 -10 -37 -32 -46 -21 -76 -22 -83 -2 -10 26 36 56
76 49 19 -3 39 -10 44 -15z m-2681 -614 c4 -8 2 -17 -3 -20 -6 -4 -10 -4 -10
-1 0 2 -3 11 -6 20 -3 9 -2 16 4 16 5 0 12 -7 15 -15z m387 -240 c-23 -24 -24
-33 -24 -138 1 -66 -2 -100 -6 -82 -4 17 -8 68 -9 115 -1 90 13 130 46 130 13
0 12 -5 -7 -25z m-520 -24 c0 -6 -4 -13 -10 -16 -5 -3 -10 1 -10 9 0 9 5 16
10 16 6 0 10 -4 10 -9z m130 -20 c6 -12 6 -22 1 -26 -10 -6 -14 -1 -24 28 -9
23 10 22 23 -2z m483 -75 c6 -16 -2 -28 -14 -20 -12 7 -11 34 0 34 5 0 11 -6
14 -14z m-493 -46 c0 -5 -7 -7 -15 -4 -8 4 -15 8 -15 10 0 2 7 4 15 4 8 0 15
-4 15 -10z m490 -9 c0 -11 -4 -23 -10 -26 -6 -4 -10 5 -10 19 0 14 5 26 10 26
6 0 10 -9 10 -19z m278 -23 c10 -10 17 -10 31 -1 13 8 22 8 29 1 6 -6 44 -12
84 -14 78 -3 87 -9 114 -71 8 -18 18 -33 23 -33 4 0 11 -21 15 -46 3 -25 12
-60 20 -77 8 -18 17 -44 20 -59 3 -14 9 -33 12 -42 10 -27 -22 -19 -60 14 -36
32 -65 81 -96 163 -27 71 -61 116 -92 122 -15 4 -32 4 -37 1 -13 -9 49 -126
74 -140 25 -14 44 -37 45 -54 0 -9 -10 -6 -29 10 -16 12 -42 30 -59 40 -25 13
-32 25 -42 75 -6 32 -13 64 -15 71 -5 15 -25 16 -25 0 0 -6 -9 -3 -20 7 -20
18 -27 45 -12 45 4 0 14 -6 20 -12z m-302 -66 c2 -61 31 -118 83 -165 22 -20
36 -39 32 -42 -33 -20 -120 72 -136 143 -7 34 2 112 13 112 4 0 8 -22 8 -48z
m2280 -114 c11 -33 10 -38 -7 -54 -19 -17 -21 -17 -47 9 -22 23 -24 29 -13 37
12 6 12 12 3 23 -15 18 -4 29 27 25 18 -2 27 -13 37 -40z m-236 -6 c32 -7 33
-9 15 -19 -27 -14 -111 -26 -135 -18 -19 6 -27 35 -14 48 7 7 79 1 134 -11z
m-1970 -437 c0 -8 -6 -15 -14 -15 -17 0 -28 14 -19 24 12 12 33 6 33 -9z m20
-86 c0 -5 -4 -9 -10 -9 -5 0 -10 7 -10 16 0 8 5 12 10 9 6 -3 10 -10 10 -16z
m3407 -111 c-3 -8 -6 -5 -6 6 -1 11 2 17 5 13 3 -3 4 -12 1 -19z m0 -50 c-3
-8 -6 -5 -6 6 -1 11 2 17 5 13 3 -3 4 -12 1 -19z m-1789 -26 c2 -7 -3 -12 -11
-12 -8 0 -17 -9 -20 -20 -3 -11 -12 -20 -20 -20 -10 0 -15 8 -14 20 1 12 8 20
19 20 10 0 18 7 18 16 0 17 22 14 28 -4z m94 -46 c13 -18 9 -27 -9 -24 -10 1
-24 -1 -31 -6 -7 -4 -19 -2 -28 5 -11 9 -18 8 -34 -6 -24 -22 -38 -14 -15 8 8
9 15 20 15 25 0 14 93 12 102 -2z m-54 -69 c2 -10 -3 -17 -12 -17 -9 0 -16 -4
-16 -10 0 -5 -8 -10 -17 -10 -17 1 -17 1 0 14 10 8 17 18 16 22 -3 18 1 26 14
22 6 -3 13 -12 15 -21z m132 -8 c0 -13 -29 -23 -38 -14 -4 4 -1 10 6 12 6 3
10 9 7 14 -4 5 1 6 9 3 9 -3 16 -10 16 -15z m-241 -8 c8 -5 9 -11 3 -15 -5 -3
-15 1 -22 9 -14 16 -3 20 19 6z m-862 -1493 c-3 -7 -5 -2 -5 12 0 14 2 19 5
13 2 -7 2 -19 0 -25z m-1147 -293 c0 -8 -9 -15 -20 -15 -20 0 -26 11 -13 23
12 13 33 7 33 -8z"/>
<path d="M5537 6023 c-24 -17 -37 -34 -37 -49 0 -18 -9 -28 -35 -38 -36 -16
-45 -33 -21 -42 21 -8 71 21 95 55 12 16 31 31 43 33 22 3 51 45 42 60 -10 16
-50 7 -87 -19z"/>
<path d="M6027 6019 c3 -10 9 -16 14 -13 13 8 11 21 -5 27 -10 4 -12 0 -9 -14z"/>
<path d="M6147 5993 c-4 -3 -7 -15 -7 -27 0 -15 -3 -17 -12 -8 -18 18 -28 15
-28 -9 0 -12 -8 -23 -19 -26 -11 -3 -24 -18 -30 -34 -7 -19 -17 -29 -30 -29
-12 0 -21 -4 -21 -10 0 -5 -6 -10 -13 -10 -7 0 -18 -9 -25 -20 -7 -11 -19 -20
-27 -20 -8 0 -15 -4 -15 -10 0 -5 -18 -10 -41 -10 -24 0 -38 4 -34 10 3 6 1
10 -5 10 -6 0 -8 -10 -4 -25 5 -19 2 -25 -10 -25 -22 0 -86 -32 -86 -43 0 -10
57 1 82 17 10 6 18 14 18 18 0 5 7 8 15 8 9 0 34 9 57 21 30 15 43 18 52 9 11
-12 11 -12 -41 -49 -13 -9 -18 -21 -15 -37 4 -22 1 -24 -32 -24 -29 0 -36 -4
-36 -20 0 -29 45 -26 76 5 25 25 54 33 54 16 0 -6 -4 -13 -10 -16 -16 -10 -12
-25 7 -25 17 0 104 39 113 50 3 4 22 10 43 14 20 4 37 11 37 16 0 6 7 10 15
10 13 0 15 22 15 140 0 129 -1 140 -18 140 -10 0 -22 -3 -25 -7z"/>
<path d="M5917 5944 c6 -15 23 -19 23 -5 0 5 -7 11 -14 14 -10 4 -13 1 -9 -9z"/>
<path d="M5902 5888 c2 -6 10 -14 16 -16 7 -2 10 2 6 12 -7 18 -28 22 -22 4z"/>
<path d="M3236 5863 c-12 -12 -5 -23 14 -23 11 0 20 4 20 9 0 11 -26 22 -34
14z"/>
<path d="M1730 5740 c-8 -5 -11 -12 -8 -16 10 -9 38 3 38 16 0 12 -10 13 -30
0z"/>
<path d="M4237 5363 c-4 -3 -7 -10 -7 -14 0 -9 39 1 46 12 6 10 -29 12 -39 2z"/>
<path d="M6065 5074 c-66 -35 -150 -80 -186 -98 -36 -19 -71 -41 -78 -50 -15
-18 -9 -29 92 -176 55 -80 123 -184 240 -365 l52 -80 3 207 c1 114 1 301 0
416 l-3 210 -120 -64z"/>
<path d="M796 4634 c-9 -24 12 -44 24 -24 5 8 8 19 7 24 -6 17 -24 17 -31 0z"/>
<path d="M4991 4066 c-10 -11 -10 -20 -1 -36 11 -21 12 -21 31 -4 25 22 25 54
0 54 -10 0 -24 -6 -30 -14z"/>
<path d="M4898 4023 c-9 -10 -37 -34 -62 -53 -46 -35 -54 -52 -37 -79 8 -12
18 -7 56 25 26 21 56 46 66 54 24 19 29 63 9 67 -8 2 -23 -4 -32 -14z"/>
<path d="M4728 3869 c-24 -13 -23 -40 3 -73 25 -32 43 -33 63 -4 15 21 15 23
-4 30 -11 4 -22 19 -26 33 -7 28 -11 29 -36 14z"/>
<path d="M4538 3680 c3 -29 10 -40 30 -49 21 -10 23 -10 15 1 -6 7 -14 27 -17
45 -11 47 -32 50 -28 3z"/>
<path d="M4413 3619 c-24 -9 -31 -33 -13 -44 6 -3 13 1 16 9 3 9 12 16 20 16
15 0 19 16 7 23 -5 3 -18 1 -30 -4z"/>
<path d="M4530 3529 c0 -7 -7 -20 -15 -29 -12 -14 -13 -21 -2 -43 13 -29 37
-36 37 -11 0 9 11 25 25 36 30 23 33 48 6 48 -11 0 -26 3 -35 6 -10 4 -16 1
-16 -7z"/>
<path d="M5317 3473 c-16 -16 -4 -24 30 -21 48 4 57 28 11 28 -19 0 -38 -3
-41 -7z"/>
<path d="M4275 3440 c-10 -17 22 -47 35 -34 7 7 4 16 -9 28 -14 12 -21 14 -26
6z"/>
<path d="M5166 3375 c-23 -17 -13 -34 11 -19 19 12 29 34 16 34 -4 0 -17 -7
-27 -15z"/>
<path d="M3112 3088 c3 -7 13 -15 22 -16 12 -3 17 1 14 10 -3 7 -13 15 -22 16
-12 3 -17 -1 -14 -10z"/>
<path d="M5215 3064 c-47 -24 -53 -34 -19 -34 30 0 74 24 74 41 0 13 -21 11
-55 -7z"/>
<path d="M5432 3068 c-26 -26 0 -58 48 -58 16 0 20 4 16 16 -3 9 -6 24 -6 35
0 22 -38 27 -58 7z"/>
<path d="M5228 2993 c7 -3 16 -2 19 1 4 3 -2 6 -13 5 -11 0 -14 -3 -6 -6z"/>
<path d="M3100 2959 c0 -5 5 -7 10 -4 6 3 10 8 10 11 0 2 -4 4 -10 4 -5 0 -10
-5 -10 -11z"/>
<path d="M5285 2920 c-3 -5 1 -10 9 -10 9 0 16 5 16 10 0 6 -4 10 -9 10 -6 0
-13 -4 -16 -10z"/>
<path d="M2037 2471 c-75 -43 -75 -44 -42 -106 17 -34 34 -55 43 -53 15 3 72
138 72 170 0 24 -15 21 -73 -11z"/>
<path d="M5876 2431 c-54 -38 -123 -81 -153 -97 -61 -31 -71 -42 -50 -50 15
-6 87 32 100 53 4 7 18 13 31 13 13 0 31 9 40 19 10 11 32 25 49 32 18 7 45
26 60 41 16 15 35 28 44 28 18 0 12 24 -8 27 -8 1 -58 -29 -113 -66z"/>
<path d="M6148 1655 c-21 -17 -38 -40 -38 -49 0 -14 6 -16 38 -10 20 4 38 8
40 9 2 2 2 21 0 43 l-3 40 -37 -33z"/>
<path d="M1350 1245 c0 -16 16 -20 24 -6 3 5 -1 11 -9 15 -9 3 -15 0 -15 -9z"/>
<path d="M1250 1108 c0 -7 5 -20 10 -28 8 -12 10 -9 10 13 0 15 -4 27 -10 27
-5 0 -10 -6 -10 -12z"/>
</g>
</svg>