<?xml version="1.0" encoding="UTF-8"?>
<!DOCTYPE svg PUBLIC "-//W3C//DTD SVG 1.1//EN" "http://www.w3.org/Graphics/SVG/1.1/DTD/svg11.dtd">
<svg xmlns="http://www.w3.org/2000/svg" version="1.1" width="1200px" height="1315px" style="shape-rendering:geometricPrecision; text-rendering:geometricPrecision; image-rendering:optimizeQuality; fill-rule:evenodd; clip-rule:evenodd" xmlns:xlink="http://www.w3.org/1999/xlink">
<g><path style="opacity:0.992" fill="#4686b8" d="M 535.5,-0.5 C 546.833,-0.5 558.167,-0.5 569.5,-0.5C 539.482,35.5077 508.982,71.1744 478,106.5C 474.533,110.12 471.7,114.12 469.5,118.5C 455.546,91.0281 433.546,81.1947 403.5,89C 375.366,102.707 364.866,124.874 372,155.5C 378.146,172.814 389.98,184.147 407.5,189.5C 387.043,213.794 366.377,237.961 345.5,262C 350.351,262.174 355.018,262.674 359.5,263.5C 339.167,263.5 318.833,263.5 298.5,263.5C 298.5,228.833 298.5,194.167 298.5,159.5C 299.329,166.321 299.829,173.321 300,180.5C 348.508,123.469 397.008,66.4688 445.5,9.5C 475.454,4.57274 505.454,1.23941 535.5,-0.5 Z"/></g>
<g><path style="opacity:0.996" fill="#4280b1" d="M 569.5,-0.5 C 585.5,-0.5 601.5,-0.5 617.5,-0.5C 641.784,0.997488 666.117,3.33082 690.5,6.5C 618.853,89.3224 547.686,172.656 477,256.5C 475.167,258.333 473.333,260.167 471.5,262C 464.987,262.172 458.653,262.672 452.5,263.5C 421.5,263.5 390.5,263.5 359.5,263.5C 355.018,262.674 350.351,262.174 345.5,262C 366.377,237.961 387.043,213.794 407.5,189.5C 435.404,194.631 455.904,184.631 469,159.5C 474.764,145.88 474.93,132.213 469.5,118.5C 471.7,114.12 474.533,110.12 478,106.5C 508.982,71.1744 539.482,35.5077 569.5,-0.5 Z"/></g>
<g><path style="opacity:0.997" fill="#3d7aab" d="M 690.5,6.5 C 722.015,8.4604 751.681,16.7937 779.5,31.5C 712.845,110.153 645.845,188.486 578.5,266.5C 578.5,265.5 578.5,264.5 578.5,263.5C 536.5,263.5 494.5,263.5 452.5,263.5C 458.653,262.672 464.987,262.172 471.5,262C 473.333,260.167 475.167,258.333 477,256.5C 547.686,172.656 618.853,89.3224 690.5,6.5 Z"/></g>
<g><path style="opacity:0.996" fill="#498abd" d="M 445.5,9.5 C 397.008,66.4688 348.508,123.469 300,180.5C 299.829,173.321 299.329,166.321 298.5,159.5C 297.292,134.126 300.792,109.46 309,85.5C 318.278,64.223 333.111,48.0563 353.5,37C 382.602,22.6891 413.268,13.5225 445.5,9.5 Z"/></g>
<g><path style="opacity:0.999" fill="#3b77a7" d="M 779.5,31.5 C 785.459,34.8065 791.125,38.4732 796.5,42.5C 796.728,43.6694 796.228,45.0028 795,46.5C 565.482,315.571 335.982,584.571 106.5,853.5C 99.8243,850.834 93.8243,847.167 88.5,842.5C 242.823,661.207 397.157,479.873 551.5,298.5C 560.5,298.5 569.5,298.5 578.5,298.5C 578.5,287.833 578.5,277.167 578.5,266.5C 645.845,188.486 712.845,110.153 779.5,31.5 Z"/></g>
<g><path style="opacity:0.998" fill="#3874a4" d="M 796.5,42.5 C 815.045,55.0409 829.712,71.0409 840.5,90.5C 705.833,248.833 571.167,407.167 436.5,565.5C 369.186,570.023 318.686,601.357 285,659.5C 273.518,681.094 266.851,704.094 265,728.5C 264.5,774.832 264.333,821.165 264.5,867.5C 229.498,867.667 194.498,867.5 159.5,867C 140.72,866.351 123.054,861.851 106.5,853.5C 335.982,584.571 565.482,315.571 795,46.5C 796.228,45.0028 796.728,43.6694 796.5,42.5 Z"/></g>
<g><path style="opacity:0.998" fill="#3671a1" d="M 840.5,90.5 C 846.769,100.38 851.435,111.046 854.5,122.5C 728.323,269.181 602.657,416.348 477.5,564C 484.346,564.172 491.013,564.672 497.5,565.5C 477.167,565.5 456.833,565.5 436.5,565.5C 571.167,407.167 705.833,248.833 840.5,90.5 Z"/></g>
<g><path style="opacity:0.998" fill="#346e9e" d="M 854.5,122.5 C 856.115,129.074 857.281,135.741 858,142.5C 858.5,161.83 858.667,181.164 858.5,200.5C 754.606,321.941 650.94,443.607 547.5,565.5C 530.833,565.5 514.167,565.5 497.5,565.5C 491.013,564.672 484.346,564.172 477.5,564C 602.657,416.348 728.323,269.181 854.5,122.5 Z"/></g>
<g><path style="opacity:0.998" fill="#326b9b" d="M 858.5,200.5 C 858.5,221.167 858.5,241.833 858.5,262.5C 772.496,362.65 686.829,463.15 601.5,564C 608.346,564.172 615.013,564.672 621.5,565.5C 596.833,565.5 572.167,565.5 547.5,565.5C 650.94,443.607 754.606,321.941 858.5,200.5 Z"/></g>
<g><path style="opacity:0.995" fill="#306998" d="M 858.5,262.5 C 858.667,320.834 858.5,379.168 858,437.5C 850.857,491.327 823.024,530.16 774.5,554C 760.441,560.079 745.774,563.745 730.5,565C 694.168,565.5 657.835,565.667 621.5,565.5C 615.013,564.672 608.346,564.172 601.5,564C 686.829,463.15 772.496,362.65 858.5,262.5 Z"/></g>
<g><path style="opacity:0.997" fill="#4a8abd" d="M 217.5,298.5 C 211.347,299.328 205.013,299.828 198.5,300C 133.302,376.692 67.9686,453.192 2.5,529.5C 6.91126,487.857 15.7446,447.19 29,407.5C 55.0031,346.403 100.836,310.57 166.5,300C 183.468,298.644 200.468,298.144 217.5,298.5 Z"/></g>
<g><path style="opacity:0.999" fill="#4685b8" d="M 217.5,298.5 C 249.833,298.5 282.167,298.5 314.5,298.5C 211.444,419.881 108.444,541.214 5.5,662.5C 3.31777,645.714 1.31777,629.048 -0.5,612.5C -0.5,592.5 -0.5,572.5 -0.5,552.5C 0.44145,544.924 1.44145,537.257 2.5,529.5C 67.9686,453.192 133.302,376.692 198.5,300C 205.013,299.828 211.347,299.328 217.5,298.5 Z"/></g>
<g><path style="opacity:0.999" fill="#4280b1" d="M 314.5,298.5 C 356.5,298.5 398.5,298.5 440.5,298.5C 306.877,455.961 173.044,613.294 39,770.5C 37.871,772.141 36.371,773.141 34.5,773.5C 29.3134,760.775 24.8134,747.775 21,734.5C 14.9948,710.638 9.82817,686.638 5.5,662.5C 108.444,541.214 211.444,419.881 314.5,298.5 Z"/></g>
<g><path style="opacity:0.999" fill="#3f7cad" d="M 440.5,298.5 C 451.5,298.5 462.5,298.5 473.5,298.5C 331.833,465.167 190.167,631.833 48.5,798.5C 43.0887,790.687 38.422,782.353 34.5,773.5C 36.371,773.141 37.871,772.141 39,770.5C 173.044,613.294 306.877,455.961 440.5,298.5 Z"/></g>
<g><path style="opacity:0.999" fill="#3d79aa" d="M 473.5,298.5 C 499.5,298.5 525.5,298.5 551.5,298.5C 397.157,479.873 242.823,661.207 88.5,842.5C 76.2706,834.44 65.7706,824.44 57,812.5C 53.893,807.944 51.0597,803.277 48.5,798.5C 190.167,631.833 331.833,465.167 473.5,298.5 Z"/></g>
<g><path style="opacity:0.991" fill="#ffe772" d="M 1059.5,312.5 C 1058.43,314.74 1056.77,316.574 1054.5,318C 1000.62,356.432 946.617,394.598 892.5,432.5C 892.5,387.833 892.5,343.167 892.5,298.5C 933.168,298.333 973.835,298.5 1014.5,299C 1030.42,300.562 1045.42,305.062 1059.5,312.5 Z"/></g>
<g><path style="opacity:0.997" fill="#ffe66d" d="M 1059.5,312.5 C 1073.01,320.342 1084.68,330.342 1094.5,342.5C 1021.56,393.445 948.889,444.778 876.5,496.5C 885.277,476.057 890.611,454.724 892.5,432.5C 946.617,394.598 1000.62,356.432 1054.5,318C 1056.77,316.574 1058.43,314.74 1059.5,312.5 Z"/></g>
<g><path style="opacity:0.997" fill="#ffe366" d="M 1094.5,342.5 C 1104.84,355.169 1113.18,369.169 1119.5,384.5C 846.047,580.067 572.38,775.4 298.5,970.5C 298.5,947.167 298.5,923.833 298.5,900.5C 299.317,902.969 299.817,905.635 300,908.5C 444.347,805.637 588.514,702.637 732.5,599.5C 798.2,589.672 846.2,555.338 876.5,496.5C 948.889,444.778 1021.56,393.445 1094.5,342.5 Z"/></g>
<g><path style="opacity:0.999" fill="#ffe160" d="M 1119.5,384.5 C 1126.06,397.84 1131.06,411.84 1134.5,426.5C 856.19,625.134 577.857,823.801 299.5,1022.5C 298.528,1005.21 298.194,987.88 298.5,970.5C 572.38,775.4 846.047,580.067 1119.5,384.5 Z"/></g>
<g><path style="opacity:0.999" fill="#ffdf5a" d="M 1134.5,426.5 C 1138.93,441.203 1142.59,456.203 1145.5,471.5C 960.531,603.144 775.865,735.144 591.5,867.5C 587.5,867.5 583.5,867.5 579.5,867.5C 579.5,876.167 579.5,884.833 579.5,893.5C 578.673,888.015 578.173,882.348 578,876.5C 489.559,939.632 401.059,1002.63 312.5,1065.5C 305.146,1052.1 300.813,1037.77 299.5,1022.5C 577.857,823.801 856.19,625.134 1134.5,426.5 Z"/></g>
<g><path style="opacity:0.998" fill="#ffdd54" d="M 1145.5,471.5 C 1148.89,487.096 1151.89,502.763 1154.5,518.5C 992.786,632.701 831.452,747.534 670.5,863C 668.833,864 667.167,865 665.5,866C 660.981,866.175 656.647,866.675 652.5,867.5C 632.167,867.5 611.833,867.5 591.5,867.5C 775.865,735.144 960.531,603.144 1145.5,471.5 Z"/></g>
<g><path style="opacity:0.995" fill="#ffdb4f" d="M 1154.5,518.5 C 1155.83,530.503 1157.17,542.503 1158.5,554.5C 1156.28,553.46 1154.28,553.96 1152.5,556C 1007.83,659.333 863.167,762.667 718.5,866C 729.495,866.5 740.495,866.667 751.5,866.5C 751.5,866.833 751.5,867.167 751.5,867.5C 718.5,867.5 685.5,867.5 652.5,867.5C 656.647,866.675 660.981,866.175 665.5,866C 667.167,865 668.833,864 670.5,863C 831.452,747.534 992.786,632.701 1154.5,518.5 Z"/></g>
<g><path style="opacity:0.999" fill="#ffda4b" d="M 1158.5,554.5 C 1159.04,561.822 1159.37,569.155 1159.5,576.5C 1158.88,576.389 1158.38,576.056 1158,575.5C 1022.34,672.399 886.845,769.399 751.5,866.5C 740.495,866.667 729.495,866.5 718.5,866C 863.167,762.667 1007.83,659.333 1152.5,556C 1154.28,553.96 1156.28,553.46 1158.5,554.5 Z"/></g>
<g><path style="opacity:0.997" fill="#ffd847" d="M 1159.5,576.5 C 1159.73,593.852 1159.4,611.185 1158.5,628.5C 1047.18,707.166 936.177,786.333 825.5,866C 829.356,866.177 833.023,866.677 836.5,867.5C 808.167,867.5 779.833,867.5 751.5,867.5C 751.5,867.167 751.5,866.833 751.5,866.5C 886.845,769.399 1022.34,672.399 1158,575.5C 1158.38,576.056 1158.88,576.389 1159.5,576.5 Z"/></g>
<g><path style="opacity:0.992" fill="#ffe772" d="M 683.5,599.5 C 675.01,600.33 666.343,600.83 657.5,601C 538.333,686.167 419.167,771.333 300,856.5C 299.817,853.635 299.317,850.969 298.5,848.5C 298.333,809.165 298.5,769.832 299,730.5C 307.279,667.402 341.446,625.569 401.5,605C 411.32,602.252 421.32,600.585 431.5,600C 515.499,599.5 599.499,599.333 683.5,599.5 Z"/></g>
<g><path style="opacity:0.998" fill="#ffe56d" d="M 683.5,599.5 C 699.833,599.5 716.167,599.5 732.5,599.5C 588.514,702.637 444.347,805.637 300,908.5C 299.817,905.635 299.317,902.969 298.5,900.5C 298.5,883.167 298.5,865.833 298.5,848.5C 299.317,850.969 299.817,853.635 300,856.5C 419.167,771.333 538.333,686.167 657.5,601C 666.343,600.83 675.01,600.33 683.5,599.5 Z"/></g>
<g><path style="opacity:0.995" fill="#ffd641" d="M 1158.5,628.5 C 1156.88,648.913 1153.54,668.913 1148.5,688.5C 1064.3,747.433 980.63,807.1 897.5,867.5C 877.167,867.5 856.833,867.5 836.5,867.5C 833.023,866.677 829.356,866.177 825.5,866C 936.177,786.333 1047.18,707.166 1158.5,628.5 Z"/></g>
<g><path style="opacity:0.989" fill="#ffd43b" d="M 1148.5,688.5 C 1139.17,727.819 1125.34,765.485 1107,801.5C 1097.43,819.407 1084.59,834.574 1068.5,847C 1053.1,857.531 1036.1,863.864 1017.5,866C 977.522,867.433 937.522,867.933 897.5,867.5C 980.63,807.1 1064.3,747.433 1148.5,688.5 Z"/></g>
<g><path style="opacity:0.996" fill="#ffdd54" d="M 579.5,893.5 C 579.5,896.167 579.5,898.833 579.5,901.5C 595.5,901.5 611.5,901.5 627.5,901.5C 623.353,902.325 619.019,902.825 614.5,903C 524.657,966.755 434.991,1030.75 345.5,1095C 343.423,1096.7 341.09,1097.87 338.5,1098.5C 328.157,1088.81 319.49,1077.81 312.5,1065.5C 401.059,1002.63 489.559,939.632 578,876.5C 578.173,882.348 578.673,888.015 579.5,893.5 Z"/></g>
<g><path style="opacity:0.991" fill="#ffda4d" d="M 627.5,901.5 C 656.167,901.5 684.833,901.5 713.5,901.5C 709.018,902.326 704.351,902.826 699.5,903C 593.986,978.363 488.652,1053.86 383.5,1129.5C 366.926,1121.39 351.926,1111.05 338.5,1098.5C 341.09,1097.87 343.423,1096.7 345.5,1095C 434.991,1030.75 524.657,966.755 614.5,903C 619.019,902.825 623.353,902.325 627.5,901.5 Z"/></g>
<g><path style="opacity:0.997" fill="#ffd847" d="M 713.5,901.5 C 729.833,901.5 746.167,901.5 762.5,901.5C 765.977,902.323 769.644,902.823 773.5,903C 658.986,984.696 544.652,1066.53 430.5,1148.5C 413.994,1144.07 398.327,1137.74 383.5,1129.5C 488.652,1053.86 593.986,978.363 699.5,903C 704.351,902.826 709.018,902.326 713.5,901.5 Z"/></g>
<g><path style="opacity:0.993" fill="#ffd641" d="M 762.5,901.5 C 794.167,901.5 825.833,901.5 857.5,901.5C 854.023,902.323 850.356,902.823 846.5,903C 813.288,927.052 779.954,950.886 746.5,974.5C 712.904,971.77 692.238,986.77 684.5,1019.5C 617.217,1066.79 550.217,1114.45 483.5,1162.5C 465.357,1159.22 447.69,1154.55 430.5,1148.5C 544.652,1066.53 658.986,984.696 773.5,903C 769.644,902.823 765.977,902.323 762.5,901.5 Z"/></g>
<g><path style="opacity:0.994" fill="#ffd43b" d="M 857.5,901.5 C 858.665,941.665 858.831,981.998 858,1022.5C 855.263,1047.4 845.93,1069.4 830,1088.5C 804.798,1115.03 774.631,1133.86 739.5,1145C 665.321,1170.88 589.321,1178.55 511.5,1168C 501.947,1166.59 492.614,1164.76 483.5,1162.5C 550.217,1114.45 617.217,1066.79 684.5,1019.5C 683.508,1055.01 700.675,1075.01 736,1079.5C 763.269,1077.36 780.269,1063.03 787,1036.5C 789.745,1004.95 776.245,984.279 746.5,974.5C 779.954,950.886 813.288,927.052 846.5,903C 850.356,902.823 854.023,902.323 857.5,901.5 Z"/></g>
<g><path style="opacity:0.008" fill="#777777" d="M 747.5,1271.5 C 751.591,1272.9 755.924,1273.56 760.5,1273.5C 764.733,1273.54 768.733,1274.21 772.5,1275.5C 775.909,1276.9 779.575,1277.57 783.5,1277.5C 786.589,1278.78 789.922,1279.45 793.5,1279.5C 820.044,1285.07 845.71,1293.57 870.5,1305C 875.256,1307.7 879.589,1310.87 883.5,1314.5C 881.167,1314.5 878.833,1314.5 876.5,1314.5C 870.245,1309.03 863.245,1304.53 855.5,1301C 843.247,1295.53 830.581,1291.36 817.5,1288.5C 798.622,1282.42 779.288,1278.59 759.5,1277C 760.167,1276.67 760.833,1276.33 761.5,1276C 751.863,1273.86 742.196,1272.86 732.5,1273C 733.167,1272.67 733.833,1272.33 734.5,1272C 731.62,1271.32 728.787,1271.48 726,1272.5C 724.238,1272.06 724.405,1271.56 726.5,1271C 723.464,1270.36 720.464,1270.53 717.5,1271.5C 716.833,1271.33 716.167,1271.17 715.5,1271C 719.232,1270.03 718.899,1269.53 714.5,1269.5C 711.814,1270.01 709.147,1270.18 706.5,1270C 707.5,1269.67 708.5,1269.33 709.5,1269C 705.798,1268.32 702.131,1268.49 698.5,1269.5C 697.833,1269.33 697.167,1269.17 696.5,1269C 697.5,1268.67 698.5,1268.33 699.5,1268C 695.465,1267.3 691.465,1267.47 687.5,1268.5C 684.937,1268.26 684.937,1267.76 687.5,1267C 683.304,1266.34 679.138,1266.5 675,1267.5C 671.896,1267.15 672.063,1266.65 675.5,1266C 670.476,1265.34 665.476,1265.5 660.5,1266.5C 656.576,1266.3 656.576,1265.8 660.5,1265C 654.148,1264.35 647.815,1264.51 641.5,1265.5C 636.226,1265.31 636.226,1264.81 641.5,1264C 631.491,1263.41 621.491,1263.58 611.5,1264.5C 600.864,1264.33 600.864,1263.83 611.5,1263C 591.833,1262.33 572.167,1262.33 552.5,1263C 563.136,1263.83 563.136,1264.33 552.5,1264.5C 542.509,1263.58 532.509,1263.41 522.5,1264C 527.774,1264.81 527.774,1265.31 522.5,1265.5C 516.185,1264.51 509.852,1264.35 503.5,1265C 507.424,1265.8 507.424,1266.3 503.5,1266.5C 498.524,1265.5 493.524,1265.34 488.5,1266C 491.937,1266.65 492.104,1267.15 489,1267.5C 484.529,1266.49 480.029,1266.32 475.5,1267C 478.937,1267.65 479.104,1268.15 476,1268.5C 472.196,1267.52 468.362,1267.35 464.5,1268C 465.5,1268.33 466.5,1268.67 467.5,1269C 464.691,1269.13 461.857,1268.97 459,1268.5C 457.5,1268.67 456,1268.83 454.5,1269C 455.5,1269.33 456.5,1269.67 457.5,1270C 454.853,1270.18 452.186,1270.01 449.5,1269.5C 448.167,1269.67 446.833,1269.83 445.5,1270C 447.595,1270.56 447.762,1271.06 446,1271.5C 440.5,1270.46 435,1270.62 429.5,1272C 431.595,1272.56 431.762,1273.06 430,1273.5C 422.805,1272.76 415.639,1273.26 408.5,1275C 410.595,1275.56 410.762,1276.06 409,1276.5C 406.88,1275.54 404.713,1275.37 402.5,1276C 404.595,1276.56 404.762,1277.06 403,1277.5C 398.841,1276.59 394.675,1276.76 390.5,1278C 375.483,1280.59 360.817,1284.09 346.5,1288.5C 324.48,1292.85 304.48,1301.52 286.5,1314.5C 284.5,1314.5 282.5,1314.5 280.5,1314.5C 290.207,1306.31 301.207,1300.14 313.5,1296C 330.671,1289.88 348.004,1284.71 365.5,1280.5C 370.744,1280.12 375.744,1279.12 380.5,1277.5C 433.229,1267.6 486.562,1262.1 540.5,1261C 595.271,1259.34 649.937,1261 704.5,1266C 719.05,1267.28 733.383,1269.11 747.5,1271.5 Z"/></g>
<g><path style="opacity:0.016" fill="#787878" d="M 817.5,1288.5 C 833.241,1293.37 848.575,1299.53 863.5,1307C 867.08,1309.28 870.414,1311.78 873.5,1314.5C 870.167,1314.5 866.833,1314.5 863.5,1314.5C 854.623,1307.22 844.623,1301.72 833.5,1298C 798.049,1286.05 761.716,1278.05 724.5,1274C 617.933,1261.38 511.6,1263.04 405.5,1279C 373.244,1283.81 342.244,1292.81 312.5,1306C 307.906,1308.12 303.906,1310.95 300.5,1314.5C 297.167,1314.5 293.833,1314.5 290.5,1314.5C 297.605,1308.44 305.605,1303.6 314.5,1300C 325.162,1295.84 335.828,1292 346.5,1288.5C 360.817,1284.09 375.483,1280.59 390.5,1278C 394.675,1276.76 398.841,1276.59 403,1277.5C 404.762,1277.06 404.595,1276.56 402.5,1276C 404.713,1275.37 406.88,1275.54 409,1276.5C 410.762,1276.06 410.595,1275.56 408.5,1275C 415.639,1273.26 422.805,1272.76 430,1273.5C 431.762,1273.06 431.595,1272.56 429.5,1272C 435,1270.62 440.5,1270.46 446,1271.5C 447.762,1271.06 447.595,1270.56 445.5,1270C 446.833,1269.83 448.167,1269.67 449.5,1269.5C 452.186,1270.01 454.853,1270.18 457.5,1270C 456.5,1269.67 455.5,1269.33 454.5,1269C 456,1268.83 457.5,1268.67 459,1268.5C 461.857,1268.97 464.691,1269.13 467.5,1269C 466.5,1268.67 465.5,1268.33 464.5,1268C 468.362,1267.35 472.196,1267.52 476,1268.5C 479.104,1268.15 478.937,1267.65 475.5,1267C 480.029,1266.32 484.529,1266.49 489,1267.5C 492.104,1267.15 491.937,1266.65 488.5,1266C 493.524,1265.34 498.524,1265.5 503.5,1266.5C 507.424,1266.3 507.424,1265.8 503.5,1265C 509.852,1264.35 516.185,1264.51 522.5,1265.5C 527.774,1265.31 527.774,1264.81 522.5,1264C 532.509,1263.41 542.509,1263.58 552.5,1264.5C 563.136,1264.33 563.136,1263.83 552.5,1263C 572.167,1262.33 591.833,1262.33 611.5,1263C 600.864,1263.83 600.864,1264.33 611.5,1264.5C 621.491,1263.58 631.491,1263.41 641.5,1264C 636.226,1264.81 636.226,1265.31 641.5,1265.5C 647.815,1264.51 654.148,1264.35 660.5,1265C 656.576,1265.8 656.576,1266.3 660.5,1266.5C 665.476,1265.5 670.476,1265.34 675.5,1266C 672.063,1266.65 671.896,1267.15 675,1267.5C 679.138,1266.5 683.304,1266.34 687.5,1267C 684.937,1267.76 684.937,1268.26 687.5,1268.5C 691.465,1267.47 695.465,1267.3 699.5,1268C 698.5,1268.33 697.5,1268.67 696.5,1269C 697.167,1269.17 697.833,1269.33 698.5,1269.5C 702.131,1268.49 705.798,1268.32 709.5,1269C 708.5,1269.33 707.5,1269.67 706.5,1270C 709.147,1270.18 711.814,1270.01 714.5,1269.5C 718.899,1269.53 719.232,1270.03 715.5,1271C 716.167,1271.17 716.833,1271.33 717.5,1271.5C 720.464,1270.53 723.464,1270.36 726.5,1271C 724.405,1271.56 724.238,1272.06 726,1272.5C 728.787,1271.48 731.62,1271.32 734.5,1272C 733.833,1272.33 733.167,1272.67 732.5,1273C 742.196,1272.86 751.863,1273.86 761.5,1276C 760.833,1276.33 760.167,1276.67 759.5,1277C 779.288,1278.59 798.622,1282.42 817.5,1288.5 Z"/></g>
<g><path style="opacity:0.02" fill="#989998" d="M 863.5,1314.5 C 861.833,1314.5 860.167,1314.5 858.5,1314.5C 846.677,1305.92 833.677,1299.42 819.5,1295C 771.423,1281.38 722.423,1273.04 672.5,1270C 583.777,1263.3 495.444,1266.63 407.5,1280C 376.292,1284.63 346.292,1293.3 317.5,1306C 312.906,1308.12 308.906,1310.95 305.5,1314.5C 303.833,1314.5 302.167,1314.5 300.5,1314.5C 303.906,1310.95 307.906,1308.12 312.5,1306C 342.244,1292.81 373.244,1283.81 405.5,1279C 511.6,1263.04 617.933,1261.38 724.5,1274C 761.716,1278.05 798.049,1286.05 833.5,1298C 844.623,1301.72 854.623,1307.22 863.5,1314.5 Z"/></g>
<g><path style="opacity:0.024" fill="#7f807f" d="M 858.5,1314.5 C 856.833,1314.5 855.167,1314.5 853.5,1314.5C 852.284,1312.55 850.618,1311.05 848.5,1310C 818.735,1295.39 787.402,1285.72 754.5,1281C 639.5,1263 524.5,1263 409.5,1281C 379.351,1285.45 350.351,1293.79 322.5,1306C 317.906,1308.12 313.906,1310.95 310.5,1314.5C 308.833,1314.5 307.167,1314.5 305.5,1314.5C 308.906,1310.95 312.906,1308.12 317.5,1306C 346.292,1293.3 376.292,1284.63 407.5,1280C 495.444,1266.63 583.777,1263.3 672.5,1270C 722.423,1273.04 771.423,1281.38 819.5,1295C 833.677,1299.42 846.677,1305.92 858.5,1314.5 Z"/></g>
<g><path style="opacity:0.027" fill="#939393" d="M 853.5,1314.5 C 851.833,1314.5 850.167,1314.5 848.5,1314.5C 833.884,1304.56 817.884,1297.39 800.5,1293C 760.762,1282.77 720.428,1276.1 679.5,1273C 590.148,1265.59 501.148,1268.59 412.5,1282C 382.721,1286.61 354.055,1294.94 326.5,1307C 322.655,1309.36 318.989,1311.86 315.5,1314.5C 313.833,1314.5 312.167,1314.5 310.5,1314.5C 313.906,1310.95 317.906,1308.12 322.5,1306C 350.351,1293.79 379.351,1285.45 409.5,1281C 524.5,1263 639.5,1263 754.5,1281C 787.402,1285.72 818.735,1295.39 848.5,1310C 850.618,1311.05 852.284,1312.55 853.5,1314.5 Z"/></g>
<g><path style="opacity:0.031" fill="#7f7f7f" d="M 848.5,1314.5 C 845.5,1314.5 842.5,1314.5 839.5,1314.5C 829.455,1307.41 818.455,1301.91 806.5,1298C 761.101,1284.71 714.767,1276.71 667.5,1274C 582.769,1267.53 498.436,1270.87 414.5,1284C 386.408,1288.44 359.408,1296.44 333.5,1308C 330.079,1309.7 327.079,1311.87 324.5,1314.5C 321.5,1314.5 318.5,1314.5 315.5,1314.5C 318.989,1311.86 322.655,1309.36 326.5,1307C 354.055,1294.94 382.721,1286.61 412.5,1282C 501.148,1268.59 590.148,1265.59 679.5,1273C 720.428,1276.1 760.762,1282.77 800.5,1293C 817.884,1297.39 833.884,1304.56 848.5,1314.5 Z"/></g>
<g><path style="opacity:0.004" fill="#000000" d="M 747.5,1271.5 C 752.076,1271.44 756.409,1272.1 760.5,1273.5C 755.924,1273.56 751.591,1272.9 747.5,1271.5 Z"/></g>
<g><path style="opacity:0.043" fill="#878787" d="M 839.5,1314.5 C 833.5,1314.5 827.5,1314.5 821.5,1314.5C 812.233,1308.37 802.233,1303.53 791.5,1300C 754.232,1289.12 716.232,1282.12 677.5,1279C 595.215,1271.57 513.215,1273.9 431.5,1286C 404.223,1290.07 377.889,1297.4 352.5,1308C 348.931,1309.94 345.598,1312.11 342.5,1314.5C 336.5,1314.5 330.5,1314.5 324.5,1314.5C 327.079,1311.87 330.079,1309.7 333.5,1308C 359.408,1296.44 386.408,1288.44 414.5,1284C 498.436,1270.87 582.769,1267.53 667.5,1274C 714.767,1276.71 761.101,1284.71 806.5,1298C 818.455,1301.91 829.455,1307.41 839.5,1314.5 Z"/></g>
<g><path style="opacity:0.004" fill="#000000" d="M 772.5,1275.5 C 776.425,1275.43 780.091,1276.1 783.5,1277.5C 779.575,1277.57 775.909,1276.9 772.5,1275.5 Z"/></g>
<g><path style="opacity:0.004" fill="#000000" d="M 380.5,1277.5 C 375.744,1279.12 370.744,1280.12 365.5,1280.5C 370.206,1278.63 375.206,1277.63 380.5,1277.5 Z"/></g>
<g><path style="opacity:0.004" fill="#000000" d="M 783.5,1277.5 C 787.122,1277.32 790.456,1277.99 793.5,1279.5C 789.922,1279.45 786.589,1278.78 783.5,1277.5 Z"/></g>
<g><path style="opacity:0.063" fill="#8e8e8e" d="M 821.5,1314.5 C 808.5,1314.5 795.5,1314.5 782.5,1314.5C 773.163,1309.01 763.163,1304.84 752.5,1302C 696.498,1288.37 639.665,1282.2 582,1283.5C 524.33,1282.2 467.497,1288.37 411.5,1302C 400.837,1304.84 390.837,1309.01 381.5,1314.5C 368.5,1314.5 355.5,1314.5 342.5,1314.5C 345.598,1312.11 348.931,1309.94 352.5,1308C 377.889,1297.4 404.223,1290.07 431.5,1286C 513.215,1273.9 595.215,1271.57 677.5,1279C 716.232,1282.12 754.232,1289.12 791.5,1300C 802.233,1303.53 812.233,1308.37 821.5,1314.5 Z"/></g>
<g><path style="opacity:0.004" fill="#000000" d="M 793.5,1279.5 C 821.803,1283.88 848.803,1292.38 874.5,1305C 879.256,1307.7 883.589,1310.87 887.5,1314.5C 886.167,1314.5 884.833,1314.5 883.5,1314.5C 879.589,1310.87 875.256,1307.7 870.5,1305C 845.71,1293.57 820.044,1285.07 793.5,1279.5 Z"/></g>
<g><path style="opacity:0.004" fill="#000000" d="M 365.5,1280.5 C 348.004,1284.71 330.671,1289.88 313.5,1296C 301.207,1300.14 290.207,1306.31 280.5,1314.5C 279.167,1314.5 277.833,1314.5 276.5,1314.5C 286.877,1305.97 298.543,1299.47 311.5,1295C 329.103,1288.6 347.103,1283.77 365.5,1280.5 Z"/></g>
<g><path style="opacity:0.012" fill="#545554" d="M 346.5,1288.5 C 335.828,1292 325.162,1295.84 314.5,1300C 305.605,1303.6 297.605,1308.44 290.5,1314.5C 289.167,1314.5 287.833,1314.5 286.5,1314.5C 304.48,1301.52 324.48,1292.85 346.5,1288.5 Z"/></g>
<g><path style="opacity:0.012" fill="#545554" d="M 817.5,1288.5 C 830.581,1291.36 843.247,1295.53 855.5,1301C 863.245,1304.53 870.245,1309.03 876.5,1314.5C 875.5,1314.5 874.5,1314.5 873.5,1314.5C 870.414,1311.78 867.08,1309.28 863.5,1307C 848.575,1299.53 833.241,1293.37 817.5,1288.5 Z"/></g>
<g><path style="opacity:0.108" fill="#9a9a9a" d="M 782.5,1314.5 C 745.5,1314.5 708.5,1314.5 671.5,1314.5C 660.482,1311.38 649.149,1309.22 637.5,1308C 600.5,1303.33 563.5,1303.33 526.5,1308C 514.831,1309.1 503.498,1311.27 492.5,1314.5C 455.5,1314.5 418.5,1314.5 381.5,1314.5C 390.837,1309.01 400.837,1304.84 411.5,1302C 467.497,1288.37 524.33,1282.2 582,1283.5C 639.665,1282.2 696.498,1288.37 752.5,1302C 763.163,1304.84 773.163,1309.01 782.5,1314.5 Z"/></g>
<g><path style="opacity:0.147" fill="#a5a5a5" d="M 671.5,1314.5 C 611.833,1314.5 552.167,1314.5 492.5,1314.5C 503.498,1311.27 514.831,1309.1 526.5,1308C 563.5,1303.33 600.5,1303.33 637.5,1308C 649.149,1309.22 660.482,1311.38 671.5,1314.5 Z"/></g>
</svg>
